# Blender v2.80 (sub 75) OBJ File: ''
# www.blender.org
mtllib sandbox.mtl
o Cube
v 9.092114 0.426262 -9.092114
v 10.591129 -0.345450 -10.591129
v 9.092114 0.426262 9.092114
v 10.591129 -0.345450 10.591129
v -9.092114 0.426262 -9.092114
v -10.591129 -0.345450 -10.591129
v -9.092114 0.426262 9.092114
v -10.591129 -0.345450 10.591129
v 10.591129 0.345450 10.591129
v -10.591129 0.345450 10.591129
v 10.591129 0.345450 -10.591129
v -10.591129 0.345450 -10.591129
v 10.591129 3.715078 10.591129
v -10.591129 3.715078 10.591129
v 10.591129 3.715078 -10.591129
v -10.591129 3.715078 -10.591129
v 9.092114 3.634266 9.092114
v -9.092114 3.634266 9.092114
v 9.092114 3.634266 -9.092114
v -9.092114 3.634266 -9.092114
vt 1.000000 0.000000
vt 1.000000 0.195268
vt 0.804309 0.195268
vt 0.804309 0.000000
vt 0.603231 0.598716
vt 0.603231 0.398074
vt 0.804309 0.398074
vt 0.804309 0.598716
vt 0.201077 0.598716
vt 0.201077 0.398074
vt 0.402154 0.398073
vt 0.402154 0.598716
vt 0.983843 1.000000
vt 0.782766 1.000000
vt 0.782766 0.799358
vt 0.983843 0.799358
vt 0.000000 0.598716
vt 0.000000 0.398074
vt 0.201077 0.398074
vt 0.201077 0.598716
vt 0.603231 0.000000
vt 0.603231 0.200642
vt 0.402154 0.200642
vt 0.402154 0.000000
vt 0.000000 0.598716
vt 0.195691 0.598716
vt 0.195691 0.996789
vt 0.000000 0.996789
vt 0.782766 0.996789
vt 0.587074 0.996789
vt 0.587074 0.598716
vt 0.782766 0.598716
vt 0.000000 0.000000
vt 0.201077 0.000000
vt 0.201077 0.000000
vt 0.402154 0.000000
vt 0.785459 0.601403
vt 0.785459 0.796671
vt 0.782766 0.799358
vt 0.782766 0.598716
vt 0.981150 0.601403
vt 0.983843 0.598716
vt 0.981150 0.796671
vt 0.983843 0.799358
vt 0.603231 0.598716
vt 0.402154 0.598716
vt 0.603231 0.000000
vt 0.804308 0.000000
vt 0.391383 0.996789
vt 0.391383 0.598716
vt 0.195691 0.598716
vt 0.391383 0.598716
vt 0.391383 0.996789
vt 0.195692 0.996789
vn 0.0000 1.0000 0.0000
vn 0.0000 0.0000 1.0000
vn -1.0000 0.0000 0.0000
vn 0.0000 -1.0000 0.0000
vn 1.0000 0.0000 0.0000
vn 0.0000 0.0000 -1.0000
vn 0.0000 0.9985 -0.0538
vn -0.0538 0.9985 0.0000
vn 0.0538 0.9985 0.0000
vn 0.0000 0.9985 0.0538
usemtl Material
s off
f 1/1/1 5/2/1 7/3/1 3/4/1
f 4/5/2 9/6/2 10/7/2 8/8/2
f 8/9/3 10/10/3 12/11/3 6/12/3
f 6/13/4 2/14/4 4/15/4 8/16/4
f 2/17/5 11/18/5 9/19/5 4/20/5
f 6/21/6 12/22/6 11/23/6 2/24/6
f 3/25/6 7/26/6 18/27/6 17/28/6
f 7/29/5 5/30/5 20/31/5 18/32/5
f 9/19/5 11/18/5 15/33/5 13/34/5
f 12/11/3 10/10/3 14/35/3 16/36/3
f 17/37/7 18/38/7 14/39/7 13/40/7
f 19/41/8 17/37/8 13/40/8 15/42/8
f 18/38/9 20/43/9 16/44/9 14/39/9
f 20/43/10 19/41/10 15/42/10 16/44/10
f 11/23/6 12/22/6 16/45/6 15/46/6
f 10/7/2 9/6/2 13/47/2 14/48/2
f 5/30/2 1/49/2 19/50/2 20/31/2
f 1/51/3 3/52/3 17/53/3 19/54/3
